<svg width="420" height="448" viewBox="0 0 420 448" fill="none" xmlns="http://www.w3.org/2000/svg">
<g clip-path="url(#clip0_4521_7285)">
<path d="M180.215 204.012L112.67 188.241L54.6117 228.429L40.0516 301.035L77.5181 363.525L145.063 379.299L203.12 339.11L217.682 266.505L180.215 204.012Z" fill="#067F56"></path>
<path d="M116.014 276.265C122.978 276.19 128.558 270.058 128.476 262.569C128.395 255.081 122.683 249.072 115.719 249.148C108.755 249.224 103.176 255.356 103.258 262.844C103.339 270.332 109.051 276.341 116.014 276.265Z" fill="white"></path>
<path d="M115.275 276.238C120.429 276.182 124.558 271.644 124.498 266.101C124.438 260.559 120.21 256.112 115.056 256.168C109.902 256.224 105.773 260.762 105.833 266.305C105.894 271.847 110.121 276.294 115.275 276.238Z" fill="#080808"></path>
<path d="M148.921 283.949C155.885 283.873 161.464 277.741 161.382 270.253C161.301 262.765 155.589 256.756 148.625 256.831C141.661 256.907 136.082 263.039 136.164 270.528C136.245 278.016 141.957 284.025 148.921 283.949Z" fill="white"></path>
<path d="M148.181 283.922C153.335 283.865 157.465 279.327 157.404 273.785C157.344 268.243 153.117 263.795 147.963 263.851C142.809 263.908 138.679 268.446 138.74 273.988C138.8 279.53 143.027 283.978 148.181 283.922Z" fill="#080808"></path>
<path d="M96.8307 305.081C90.1648 300.303 85.9002 292.64 85.1309 284.061C85.015 282.764 85.8982 281.614 87.102 281.492C88.3077 281.369 89.3787 282.318 89.4946 283.615C90.1364 290.777 93.6951 297.171 99.2592 301.16C104.821 305.149 111.677 306.219 118.068 304.099C119.224 303.716 120.451 304.412 120.811 305.656C121.168 306.9 120.523 308.22 119.367 308.602C111.712 311.142 103.496 309.859 96.8327 305.078L96.8307 305.081Z" fill="white"></path>
<path d="M80.2513 283.101C79.2439 282.379 78.9695 280.915 79.6396 279.833C80.3098 278.751 81.6705 278.458 82.6778 279.18C85.1624 280.961 88.5276 280.24 90.18 277.571C90.8501 276.489 92.2108 276.196 93.2182 276.918C94.2255 277.641 94.5 279.104 93.8298 280.186C90.8392 285.017 84.7465 286.325 80.2493 283.101L80.2513 283.101Z" fill="white"></path>
<path d="M336.359 39.8938L323.808 1.24711L287.887 14.6821C263.895 23.6553 251.241 51.853 259.624 77.6654C251.241 51.853 224.997 38.2018 201.005 47.175L165.084 60.61L177.635 99.2568C186.018 125.069 212.262 138.72 236.254 129.747C212.262 138.72 199.608 166.918 207.991 192.73L220.542 231.377L256.463 217.942C280.455 208.969 293.109 180.771 284.728 154.959C293.111 180.771 319.355 194.422 343.347 185.449L379.268 172.014L366.717 133.368C358.334 107.555 332.09 93.9039 308.098 102.877C332.09 93.9039 344.744 65.7063 336.363 39.8938L336.359 39.8938Z" fill="#FF5000"></path>
<path d="M271.659 92.9155C272.266 92.6878 272.958 92.7459 273.547 93.1379C277.535 95.7825 282.354 96.3539 286.765 94.7035C291.179 93.0532 294.622 89.393 296.215 84.6607C296.629 83.4282 297.897 82.7906 299.043 83.2399C300.19 83.6871 300.785 85.0509 300.369 86.2834C298.322 92.3647 293.895 97.0687 288.221 99.1903C282.548 101.312 276.354 100.58 271.23 97.1798C270.19 96.4907 269.867 95.0276 270.506 93.9109C270.784 93.4285 271.195 93.0891 271.657 92.9155L271.659 92.9155Z" fill="#080808"></path>
<path d="M233.119 107.33C233.725 107.104 234.418 107.16 235.006 107.552C238.994 110.197 243.813 110.768 248.224 109.116C252.638 107.465 256.081 103.805 257.674 99.0728C258.091 97.8403 259.356 97.2027 260.503 97.6521C261.65 98.0993 262.245 99.463 261.829 100.696C259.782 106.777 255.355 111.481 249.682 113.602C244.009 115.724 237.815 114.992 232.691 111.592C231.651 110.903 231.328 109.44 231.967 108.323C232.245 107.838 232.657 107.501 233.119 107.328L233.119 107.33Z" fill="#080808"></path>
<path d="M283.86 121.974C284.667 124.457 284.845 126.97 284.493 129.235C283.921 132.936 281.928 135.965 278.92 137.09C275.911 138.215 272.596 137.17 270.003 134.657C268.417 133.118 267.102 131.024 266.295 128.542C265.014 124.596 265.313 120.565 266.819 117.594C267.63 115.991 268.793 114.696 270.246 113.888C270.563 113.709 270.891 113.557 271.236 113.428C271.581 113.3 271.926 113.2 272.277 113.128C273.883 112.791 275.543 113.031 277.108 113.745C280.011 115.073 282.578 118.029 283.86 121.972L283.86 121.974Z" fill="#080808"></path>
<path d="M295.17 235.095C298.257 238.898 296.185 246.055 297.979 250.413C299.84 254.933 306.217 258.368 306.704 263.123C307.198 267.927 301.598 272.228 300.709 276.896C299.827 281.517 303.326 288.278 301.103 292.395C298.958 296.37 291.972 296.174 288.595 299.344C285.215 302.513 284.448 309.981 280.495 311.725C276.399 313.534 270.642 308.89 266.263 309.203C261.841 309.518 257.118 314.899 252.759 313.721C248.443 312.555 246.141 305.298 242.229 302.705C238.454 300.203 231.579 301.438 228.492 297.636C225.405 293.833 227.477 286.676 225.683 282.318C223.822 277.799 217.446 274.364 216.958 269.608C216.464 264.804 222.064 260.503 222.954 255.836C223.836 251.214 220.336 244.453 222.559 240.336C224.704 236.361 231.691 236.557 235.068 233.388C238.447 230.218 239.215 222.75 243.167 221.006C247.264 219.197 253.02 223.841 257.399 223.528C261.821 223.213 266.544 217.832 270.903 219.01C275.219 220.176 277.521 227.433 281.434 230.026C285.208 232.528 292.084 231.293 295.17 235.095Z" fill="#FFA6B4"></path>
<path d="M250.56 279.506C256.099 279.445 260.536 274.569 260.471 268.613C260.406 262.657 255.864 257.878 250.325 257.939C244.787 257.999 240.349 262.876 240.414 268.831C240.479 274.787 245.022 279.566 250.56 279.506Z" fill="white"></path>
<path d="M254.821 269.265C257.185 269.24 259.079 267.158 259.051 264.616C259.024 262.074 257.085 260.034 254.721 260.06C252.357 260.086 250.463 262.167 250.491 264.709C250.518 267.251 252.457 269.291 254.821 269.265Z" fill="#080808"></path>
<path d="M265.665 265.341C271.204 265.28 275.641 260.404 275.576 254.448C275.511 248.492 270.969 243.713 265.43 243.774C259.892 243.834 255.454 248.711 255.519 254.666C255.584 260.622 260.127 265.401 265.665 265.341Z" fill="white"></path>
<path d="M269.926 255.098C272.29 255.073 274.184 252.991 274.156 250.449C274.129 247.907 272.19 245.867 269.826 245.893C267.462 245.919 265.568 248 265.596 250.542C265.623 253.084 267.562 255.124 269.926 255.098Z" fill="#080808"></path>
<path d="M271.985 278.876C268.785 281.877 264.544 283.154 260.351 282.374C259.716 282.256 259.292 281.608 259.4 280.929C259.509 280.247 260.111 279.792 260.743 279.909C264.243 280.559 267.784 279.496 270.454 276.991C273.124 274.486 274.585 270.861 274.46 267.045C274.438 266.353 274.938 265.776 275.581 265.752C276.224 265.729 276.762 266.271 276.785 266.96C276.935 271.533 275.185 275.876 271.985 278.879L271.985 278.876Z" fill="white"></path>
<path d="M283.225 366.318C286.228 362.448 284.001 355.339 285.7 350.942C287.462 346.383 293.762 342.81 294.145 338.045C294.535 333.232 288.842 329.054 287.851 324.406C286.869 319.805 290.22 312.97 287.908 308.902C285.677 304.975 278.697 305.322 275.251 302.228C271.804 299.133 270.874 291.683 266.884 290.026C262.75 288.306 257.096 293.074 252.711 292.857C248.283 292.638 243.444 287.361 239.111 288.634C234.822 289.893 232.678 297.199 228.823 299.877C225.104 302.461 218.204 301.376 215.2 305.243C212.197 309.113 214.424 316.223 212.726 320.619C210.964 325.178 204.663 328.751 204.28 333.516C203.89 338.33 209.583 342.508 210.574 347.155C211.556 351.756 208.205 358.591 210.517 362.66C212.748 366.586 219.728 366.239 223.174 369.334C226.621 372.428 227.551 379.878 231.541 381.536C235.676 383.255 241.329 378.487 245.715 378.704C250.142 378.923 254.982 384.2 259.314 382.927C263.603 381.668 265.747 374.362 269.602 371.685C273.321 369.101 280.222 370.186 283.225 366.318Z" fill="#FFA6B4"></path>
<path d="M237.896 344.454C243.434 344.394 247.871 339.517 247.807 333.561C247.742 327.606 243.199 322.827 237.661 322.887C232.122 322.947 227.685 327.824 227.75 333.78C227.815 339.735 232.357 344.514 237.896 344.454Z" fill="white"></path>
<path d="M242.244 342.237C244.608 342.211 246.502 340.13 246.474 337.588C246.447 335.046 244.508 333.006 242.144 333.032C239.78 333.057 237.886 335.139 237.913 337.681C237.941 340.223 239.88 342.263 242.244 342.237Z" fill="#080808"></path>
<path d="M253.303 358.289C258.841 358.229 263.279 353.352 263.214 347.396C263.149 341.441 258.606 336.662 253.068 336.722C247.529 336.782 243.092 341.659 243.157 347.615C243.222 353.57 247.764 358.349 253.303 358.289Z" fill="white"></path>
<path d="M257.651 356.073C260.015 356.047 261.909 353.966 261.881 351.424C261.854 348.882 259.915 346.842 257.551 346.867C255.187 346.893 253.293 348.975 253.321 351.517C253.348 354.059 255.287 356.099 257.651 356.073Z" fill="#080808"></path>
<path d="M259.091 323.052C255.827 320.121 251.559 318.937 247.384 319.808C246.752 319.94 246.342 320.597 246.465 321.274C246.589 321.953 247.2 322.395 247.83 322.264C251.315 321.538 254.878 322.524 257.602 324.97C260.326 327.416 261.865 331.009 261.823 334.827C261.816 335.518 262.329 336.084 262.973 336.095C263.616 336.103 264.141 335.55 264.15 334.86C264.2 330.285 262.356 325.982 259.091 323.049L259.091 323.052Z" fill="white"></path>
<path d="M376.341 262.919C373.226 266.685 366.36 265.367 362.566 267.825C358.634 270.372 356.281 277.604 351.955 278.717C347.586 279.842 342.904 274.405 338.485 274.037C334.108 273.673 328.318 278.248 324.237 276.39C320.296 274.599 319.584 267.122 316.229 263.913C312.874 260.703 305.887 260.814 303.771 256.816C301.578 252.672 305.128 245.953 304.28 241.322C303.423 236.645 297.857 232.277 298.385 227.48C298.907 222.731 305.309 219.371 307.202 214.874C309.03 210.535 307.012 203.356 310.124 199.59C313.238 195.824 320.104 197.141 323.898 194.683C327.83 192.136 330.184 184.905 334.51 183.792C338.878 182.667 343.56 188.104 347.98 188.471C352.356 188.835 358.147 184.261 362.228 186.119C366.168 187.91 366.88 195.386 370.236 198.596C373.591 201.805 380.578 201.694 382.694 205.692C384.886 209.836 381.336 216.555 382.184 221.187C383.042 225.864 388.608 230.231 388.08 235.029C387.557 239.778 381.155 243.138 379.262 247.635C377.435 251.973 379.453 259.153 376.341 262.919Z" fill="#A980FF"></path>
<path d="M339.721 230.184C345.26 230.123 349.697 225.246 349.632 219.291C349.567 213.335 345.025 208.556 339.486 208.616C333.948 208.677 329.511 213.554 329.575 219.509C329.64 225.465 334.183 230.244 339.721 230.184Z" fill="white"></path>
<path d="M343.953 228.115C346.317 228.089 348.211 226.008 348.183 223.466C348.156 220.924 346.217 218.884 343.853 218.909C341.489 218.935 339.595 221.017 339.622 223.559C339.65 226.101 341.589 228.141 343.953 228.115Z" fill="#080808"></path>
<path d="M354.721 244.529C360.26 244.469 364.697 239.592 364.632 233.636C364.567 227.681 360.025 222.902 354.486 222.962C348.948 223.022 344.511 227.899 344.575 233.855C344.64 239.81 349.183 244.59 354.721 244.529Z" fill="white"></path>
<path d="M358.951 242.461C361.315 242.435 363.209 240.353 363.181 237.811C363.154 235.269 361.215 233.229 358.851 233.255C356.487 233.281 354.593 235.362 354.62 237.905C354.648 240.447 356.587 242.486 358.951 242.461Z" fill="#080808"></path>
<path d="M332.99 243.643C329.811 240.604 328.095 236.238 328.277 231.668C328.304 230.978 328.848 230.442 329.489 230.473C330.131 230.503 330.63 231.088 330.603 231.778C330.451 235.593 331.883 239.237 334.535 241.772C337.186 244.308 340.718 245.415 344.223 244.805C344.857 244.695 345.454 245.159 345.559 245.841C345.662 246.523 345.232 247.165 344.598 247.277C340.398 248.005 336.168 246.681 332.99 243.64L332.99 243.643Z" fill="white"></path>
<path d="M298.013 350.664C295.439 346.443 298.4 339.66 297.175 335.079C295.906 330.33 290.025 325.99 290.146 321.208C290.268 316.378 296.362 312.942 297.838 308.45C299.3 304.004 296.691 296.793 299.417 293.04C302.142 289.287 308.944 290.638 312.695 287.997C316.447 285.356 318.157 278.072 322.295 276.924C326.583 275.734 331.697 281.179 336.075 281.515C340.496 281.852 345.861 277.219 350.031 279.023C354.16 280.81 355.517 288.338 359.064 291.482C362.487 294.516 369.457 294.302 372.031 298.523C374.605 302.744 371.644 309.527 372.868 314.108C374.137 318.857 380.019 323.197 379.898 327.979C379.775 332.809 373.681 336.244 372.206 340.737C370.744 345.183 373.352 352.393 370.627 356.146C367.997 359.767 361.1 358.549 357.348 361.19C353.597 363.831 351.887 371.115 347.749 372.263C343.46 373.452 338.347 368.007 333.968 367.672C329.547 367.335 324.183 371.968 320.013 370.164C315.883 368.377 314.527 360.848 310.979 357.704C307.557 354.671 300.587 354.884 298.013 350.664Z" fill="#149D52"></path>
<path d="M346.723 334.717C352.261 334.656 356.699 329.78 356.634 323.824C356.569 317.868 352.026 313.089 346.488 313.15C340.949 313.21 336.512 318.087 336.577 324.042C336.642 329.998 341.184 334.777 346.723 334.717Z" fill="white"></path>
<path d="M341.849 331.92C344.213 331.894 346.107 329.812 346.08 327.27C346.052 324.728 344.113 322.688 341.749 322.714C339.385 322.74 337.491 324.821 337.519 327.364C337.547 329.906 339.485 331.945 341.849 331.92Z" fill="#080808"></path>
<path d="M329.956 346.526C335.494 346.466 339.931 341.589 339.867 335.634C339.802 329.678 335.259 324.899 329.721 324.959C324.182 325.019 319.745 329.896 319.81 335.852C319.875 341.808 324.417 346.587 329.956 346.526Z" fill="white"></path>
<path d="M325.082 343.731C327.446 343.705 329.34 341.624 329.313 339.082C329.285 336.54 327.346 334.5 324.982 334.526C322.618 334.551 320.724 336.633 320.752 339.175C320.779 341.717 322.718 343.757 325.082 343.731Z" fill="#080808"></path>
<path d="M326.553 310.712C330.104 308.211 334.47 307.57 338.526 308.957C339.139 309.167 339.478 309.871 339.284 310.529C339.089 311.188 338.436 311.552 337.823 311.342C334.437 310.184 330.795 310.716 327.83 312.806C324.866 314.894 322.957 318.27 322.595 322.07C322.529 322.758 321.959 323.256 321.319 323.185C320.679 323.113 320.214 322.498 320.28 321.81C320.713 317.259 322.999 313.215 326.551 310.712L326.553 310.712Z" fill="white"></path>
<path d="M106.397 207.393C103.017 210.884 96.2666 208.987 92.304 211.116C88.1978 213.321 85.3203 220.329 80.9274 221.073C76.4897 221.824 72.2187 216.008 67.8402 215.268C63.5044 214.534 57.397 218.604 53.4606 216.407C49.6634 214.286 49.5002 206.776 46.3905 203.292C43.2808 199.808 36.3055 199.328 34.4892 195.163C32.608 190.845 36.6382 184.448 36.1332 179.761C35.6215 175.025 30.3924 170.201 31.2711 165.463C32.1401 160.774 38.7702 157.968 40.9867 153.647C43.1256 149.478 41.6391 142.148 45.021 138.659C48.4008 135.168 55.1513 137.065 59.1139 134.935C63.2202 132.73 66.0976 125.723 70.4906 124.979C74.9282 124.228 79.1992 130.043 83.5778 130.784C87.9135 131.518 94.0209 127.448 97.9573 129.644C101.755 131.765 101.918 139.276 105.027 142.76C108.137 146.244 115.112 146.724 116.929 150.889C118.81 155.207 114.78 161.603 115.285 166.291C115.796 171.026 121.026 175.851 120.147 180.588C119.278 185.278 112.648 188.084 110.431 192.405C108.292 196.574 109.779 203.904 106.397 207.393Z" fill="#A980FF"></path>
<path d="M73.0733 171.686C78.6119 171.626 83.0491 166.749 82.9843 160.794C82.9194 154.838 78.377 150.059 72.8385 150.119C67.2999 150.18 62.8626 155.056 62.9275 161.012C62.9923 166.968 67.5348 171.747 73.0733 171.686Z" fill="white"></path>
<path d="M76.9896 169.967C79.3536 169.941 81.2476 167.859 81.2199 165.317C81.1922 162.775 79.2533 160.735 76.8893 160.761C74.5253 160.787 72.6313 162.868 72.659 165.41C72.6867 167.952 74.6256 169.992 76.9896 169.967Z" fill="#080808"></path>
<path d="M86.9776 187.256C92.5161 187.195 96.9534 182.319 96.8886 176.363C96.8237 170.407 92.2813 165.628 86.7428 165.689C81.2042 165.749 76.7669 170.626 76.8318 176.581C76.8966 182.537 81.4391 187.316 86.9776 187.256Z" fill="white"></path>
<path d="M90.8939 185.536C93.2579 185.51 95.1519 183.429 95.1242 180.886C95.0965 178.344 93.1576 176.305 90.7936 176.33C88.4296 176.356 86.5356 178.438 86.5633 180.98C86.591 183.522 88.5298 185.562 90.8939 185.536Z" fill="#080808"></path>
<path d="M64.5862 184.505C61.6414 181.205 60.2468 176.709 60.7654 172.17C60.8434 171.484 61.4244 170.999 62.0624 171.084C62.7005 171.169 63.1552 171.794 63.0751 172.48C62.6441 176.269 63.8066 180.022 66.2651 182.775C68.7236 185.528 72.1628 186.929 75.7035 186.619C76.3441 186.564 76.9054 187.076 76.9597 187.765C77.012 188.454 76.5361 189.057 75.8955 189.114C71.6553 189.484 67.5331 187.806 64.5883 184.507L64.5862 184.505Z" fill="white"></path>
<path d="M211.377 136.716L176.19 175.388C156.757 196.747 124.876 197.094 104.984 176.164C85.0898 155.233 84.7164 120.952 104.15 99.5954C123.584 78.2365 155.464 77.8894 175.356 98.82L211.377 136.716Z" fill="#70DDEF"></path>
<path d="M124.521 151.397C131.057 151.326 136.293 145.571 136.216 138.543C136.14 131.516 130.78 125.876 124.244 125.947C117.708 126.018 112.472 131.773 112.549 138.801C112.625 145.829 117.985 151.468 124.521 151.397Z" fill="white"></path>
<path d="M124.488 148.358C129.462 148.303 133.447 143.923 133.389 138.575C133.331 133.226 129.251 128.934 124.277 128.988C119.303 129.042 115.318 133.422 115.376 138.771C115.434 144.12 119.514 148.412 124.488 148.358Z" fill="#080808"></path>
<path d="M141.06 133.22C147.596 133.149 152.832 127.394 152.755 120.367C152.679 113.339 147.319 107.699 140.783 107.771C134.247 107.842 129.011 113.597 129.088 120.624C129.164 127.652 134.525 133.292 141.06 133.22Z" fill="white"></path>
<path d="M141.027 130.18C146.001 130.126 149.987 125.746 149.928 120.397C149.87 115.048 145.79 110.756 140.816 110.81C135.842 110.864 131.857 115.244 131.915 120.593C131.973 125.942 136.053 130.234 141.027 130.18Z" fill="#080808"></path>
<path d="M151.818 149.748C148.44 153.46 143.74 155.315 138.92 154.835C138.193 154.762 137.656 154.07 137.723 153.288C137.79 152.505 138.433 151.929 139.16 152.002C143.183 152.403 147.107 150.854 149.925 147.757C152.743 144.659 154.096 140.407 153.637 136.091C153.554 135.311 154.075 134.607 154.801 134.518C155.527 134.429 156.182 134.991 156.266 135.771C156.817 140.942 155.195 146.036 151.818 149.748Z" fill="#080808"></path>
<path d="M137.849 157.838C137.339 158.4 136.5 158.409 135.979 157.859C135.456 157.309 135.446 156.407 135.957 155.847C137.216 154.463 137.192 152.235 135.903 150.879C135.38 150.329 135.37 149.427 135.881 148.868C136.392 148.306 137.231 148.297 137.752 148.847C140.085 151.302 140.129 155.336 137.85 157.841L137.849 157.838Z" fill="#080808"></path>
<path d="M159.035 134.555C159.546 133.993 159.536 133.091 159.013 132.543C158.49 131.993 157.651 132.002 157.142 132.564C155.883 133.948 153.811 133.97 152.522 132.614C151.999 132.064 151.16 132.073 150.652 132.634C150.141 133.196 150.15 134.098 150.673 134.646C153.007 137.1 156.758 137.06 159.037 134.555L159.035 134.555Z" fill="#080808"></path>
</g>
<defs>
<clipPath id="clip0_4521_7285">
<rect width="414" height="443" fill="white" transform="translate(0.5 4.76758) rotate(-0.623918)"></rect>
</clipPath>
</defs>
</svg>